<svg  xmlns="http://www.w3.org/2000/svg" style='display: none' >
<defs>
<symbol id="parcel-filled" viewBox="0 0 32 32">
<path d="M18.166 3.144l6.667 3.079c0.883 0.408 1.621 1.045 2.163 1.827l-10.996 5.498-10.996-5.498c0.541-0.782 1.28-1.42 2.163-1.827l6.667-3.079c1.379-0.637 2.953-0.637 4.332 0zM4.177 9.873c-0.116 0.455-0.177 0.93-0.177 1.415v9.424c0 2.19 1.241 4.175 3.167 5.065l6.667 3.079c0.377 0.174 0.768 0.301 1.166 0.379v-13.95l-10.823-5.412zM17 29.235c0.398-0.079 0.789-0.205 1.166-0.379l6.667-3.079c1.926-0.89 3.167-2.874 3.167-5.065v-9.424c0-0.485-0.061-0.96-0.177-1.415l-10.823 5.412v13.95z"></path>
</symbol>
</defs>
</svg>

